<?xml version="1.0" standalone="no"?>
<!DOCTYPE svg PUBLIC "-//W3C//DTD SVG 20010904//EN"
 "http://www.w3.org/TR/2001/REC-SVG-20010904/DTD/svg10.dtd">
<svg version="1.0" xmlns="http://www.w3.org/2000/svg"
 width="800.000000pt" height="675.000000pt" viewBox="0 0 800.000000 675.000000"
 preserveAspectRatio="xMidYMid meet">
<metadata>
Created by potrace 1.16, written by Peter Selinger 2001-2019
</metadata>
<g transform="translate(0.000000,675.000000) scale(0.100000,-0.100000)"
fill="#000000" stroke="none">
<path d="M4645 5503 c-49 -82 -101 -167 -115 -190 -14 -23 -38 -48 -54 -54
l-28 -12 43 -18 c24 -10 52 -18 62 -18 21 -1 23 25 2 33 -20 7 -19 16 8 49
l22 29 43 -17 c35 -14 42 -22 42 -44 0 -35 -13 -53 -33 -45 -12 4 -17 1 -17
-14 0 -15 12 -24 47 -36 50 -17 63 -15 44 8 -12 14 3 158 39 382 22 136 5 127
-105 -53z"/>
<path d="M3677 5582 c-2 -4 -32 -99 -67 -212 -44 -146 -70 -213 -87 -232 l-25
-26 59 -4 c53 -3 72 3 73 25 0 4 -7 7 -15 7 -22 0 -28 22 -16 53 9 22 17 27
45 27 40 0 66 -22 66 -56 0 -17 -5 -24 -20 -24 -28 0 -26 -36 3 -44 12 -3 39
-6 60 -6 l38 0 -20 28 c-15 21 -23 72 -41 244 -16 153 -27 219 -36 222 -7 3
-15 2 -17 -2z"/>
<path d="M2626 5238 c-3 -13 -7 -116 -8 -229 -2 -158 -6 -210 -17 -223 -20
-24 -10 -28 45 -19 34 6 50 14 52 26 3 13 -3 17 -23 17 -24 0 -26 3 -23 38 3
35 6 38 48 48 44 11 45 11 62 -20 22 -40 22 -43 -2 -49 -14 -4 -18 -10 -14
-22 6 -14 15 -16 47 -11 22 4 47 11 56 16 14 8 13 11 -6 16 -18 5 -38 46 -106
217 -46 116 -88 212 -95 215 -6 2 -14 -7 -16 -20z"/>
<path d="M4427 5142 c-26 -28 -39 -75 -33 -116 6 -37 61 -166 72 -166 13 0
105 52 133 76 90 75 80 196 -15 181 -31 -5 -41 -2 -60 18 -27 30 -74 33 -97 7z"/>
<path d="M3563 4987 c-28 -29 -58 -67 -67 -85 -36 -70 -7 -130 59 -119 40 7
45 -5 20 -52 l-14 -29 38 -4 c37 -3 38 -2 30 20 -11 28 -12 75 -1 70 4 -2 19
-10 34 -17 24 -12 31 -12 53 3 20 13 25 24 25 61 0 24 -5 56 -11 72 -15 40
-87 133 -103 133 -7 0 -36 -24 -63 -53z"/>
<path d="M7106 4783 c-13 -21 -62 -99 -108 -173 -102 -166 -107 -173 -136
-185 -22 -10 -20 -12 28 -29 40 -14 54 -16 63 -7 9 9 8 14 -5 22 -16 9 -16 12
-1 45 14 29 21 34 40 29 72 -18 81 -29 66 -83 -4 -17 -11 -22 -24 -19 -10 3
-20 -2 -24 -11 -7 -18 -10 -16 48 -35 39 -13 47 -13 47 -2 0 8 -5 17 -10 20
-6 4 -8 14 -6 23 5 16 66 418 66 435 0 19 -22 4 -44 -30z"/>
<path d="M1727 4754 c-34 -17 -47 -30 -45 -42 2 -9 11 -16 20 -14 15 2 16 -8
11 -95 -3 -54 -7 -100 -9 -102 -1 -1 -19 30 -39 69 -32 63 -35 76 -25 96 22
39 3 45 -55 17 -45 -22 -52 -29 -45 -44 6 -10 17 -15 28 -12 15 3 32 -26 100
-167 84 -175 89 -190 72 -190 -5 0 -10 -9 -10 -20 0 -25 14 -25 70 3 50 24 61
54 19 49 -39 -4 -71 71 -67 156 l3 62 75 -61 c108 -87 106 -85 90 -104 -10
-12 -10 -19 -2 -27 16 -16 114 30 109 51 -2 10 -12 15 -26 13 -17 -1 -55 25
-138 94 -95 80 -114 100 -109 118 3 11 6 44 6 73 0 43 3 53 21 58 20 7 23 36
4 41 -5 2 -32 -8 -58 -22z"/>
<path d="M2714 4668 c-10 -24 -38 -66 -60 -94 l-42 -51 55 -32 c29 -18 71 -50
92 -72 l37 -39 23 50 c13 28 40 73 61 99 l39 49 -57 35 c-31 20 -70 49 -86 66
-17 17 -33 31 -36 31 -4 0 -16 -19 -26 -42z"/>
<path d="M2272 4613 c-44 -116 -55 -186 -50 -314 7 -190 58 -267 169 -257 27
3 52 8 55 10 4 5 -85 497 -111 616 -10 43 -33 23 -63 -55z"/>
<path d="M6863 4320 c-59 -24 -73 -117 -32 -220 13 -34 29 -64 35 -67 20 -8
120 47 158 86 29 30 39 50 43 83 6 54 -12 73 -70 73 -30 0 -47 6 -68 27 -30
30 -33 31 -66 18z"/>
<path d="M1858 4197 c-7 -23 -13 -77 -13 -119 0 -65 3 -81 20 -97 35 -33 62
-35 91 -6 31 31 44 21 44 -32 l0 -32 30 17 c16 9 30 20 30 23 0 3 -11 16 -25
29 -31 30 -32 40 -1 40 27 0 51 20 61 50 16 50 -66 123 -172 154 l-53 15 -12
-42z"/>
<path d="M1022 4072 c-45 -40 -54 -62 -23 -62 11 0 22 -8 25 -17 9 -32 29
-173 25 -177 -2 -2 -28 26 -58 61 -45 54 -53 68 -44 82 6 10 8 24 3 31 -7 11
-19 6 -54 -21 -50 -37 -54 -54 -13 -54 22 0 44 -21 123 -120 155 -194 148
-183 134 -200 -10 -12 -10 -19 -2 -27 8 -8 23 -1 57 26 25 21 45 41 45 46 0
17 -21 22 -36 9 -14 -11 -21 -8 -46 21 -38 45 -55 85 -59 135 -2 31 0 39 11
37 13 -3 189 -90 199 -98 2 -2 -2 -11 -9 -19 -10 -12 -10 -19 -2 -27 8 -8 23
-1 56 25 51 43 53 43 80 20 11 -10 3 2 -17 27 -166 200 -152 178 -131 203 l18
22 -24 -22 -23 -22 63 -76 c57 -69 61 -78 47 -92 -14 -14 -28 -9 -150 50 -146
71 -140 65 -153 165 -5 42 -3 56 11 72 15 17 14 40 -3 40 -4 0 -26 -17 -50
-38z"/>
<path d="M1494 4014 c-16 -8 -37 -27 -46 -42 -59 -102 2 -216 161 -301 71 -38
171 -74 171 -61 0 4 -46 101 -102 214 -93 190 -103 206 -127 206 -14 0 -40 -7
-57 -16z"/>
<path d="M2320 3818 c0 -4 42 -92 93 -195 51 -103 114 -233 140 -288 45 -97
57 -103 36 -20 -5 22 -11 54 -13 70 -2 17 -9 59 -16 94 -11 53 -18 66 -44 82
-17 10 -34 19 -38 19 -17 0 -6 -31 22 -63 34 -39 36 -47 15 -47 -14 0 -95 145
-95 170 0 13 89 -37 107 -60 9 -11 12 -11 13 -2 0 18 -31 166 -36 171 -3 3
-24 -17 -48 -45 -24 -27 -46 -47 -49 -44 -2 3 -23 41 -45 85 -23 44 -41 77
-42 73z"/>
<path d="M5205 3724 c-5 -1 -22 -5 -37 -8 -82 -18 -136 -142 -125 -289 3 -45
11 -95 16 -112 6 -16 17 -60 25 -96 16 -74 75 -219 89 -219 5 0 39 17 75 37
211 116 329 232 375 367 22 63 21 91 -3 144 -15 34 -29 47 -65 63 -57 25 -110
14 -160 -36 -19 -19 -37 -35 -40 -35 -3 0 -5 12 -5 26 0 43 -21 102 -46 124
-21 21 -77 40 -99 34z"/>
<path d="M1342 3637 c-6 -7 -15 -25 -21 -40 -8 -20 -17 -27 -36 -27 -26 0 -75
-39 -75 -60 0 -24 32 -70 65 -95 35 -27 156 -54 187 -42 22 8 33 122 18 177
-15 55 -59 100 -98 100 -16 0 -34 -6 -40 -13z"/>
<path d="M3601 2604 c-40 -20 -81 -49 -95 -67 -27 -36 -41 -87 -31 -116 8 -25
55 -44 89 -35 21 5 30 1 47 -20 31 -39 75 -33 107 14 20 30 23 44 19 95 -3 38
-14 80 -31 113 -14 28 -28 52 -30 52 -2 0 -35 -16 -75 -36z"/>
<path d="M3440 2334 c0 -3 4 -13 9 -23 6 -11 -2 -90 -24 -236 -40 -259 -38
-235 -21 -235 7 0 46 53 86 118 159 256 165 265 195 278 17 7 24 14 18 15 -18
2 -24 4 -58 18 -16 6 -35 13 -40 15 -17 6 -16 -32 1 -38 11 -4 10 -12 -7 -41
-17 -28 -26 -34 -43 -29 -36 11 -69 29 -67 37 0 4 1 20 1 36 0 23 5 30 22 33
27 4 34 24 11 31 -10 3 -33 10 -50 15 -18 6 -33 8 -33 6z"/>
<path d="M6035 1783 c-50 -27 -105 -74 -120 -104 -8 -15 -15 -46 -15 -68 0
-48 23 -65 79 -59 29 4 39 0 54 -19 13 -16 29 -23 53 -23 76 0 98 125 40 238
-29 56 -42 62 -91 35z"/>
<path d="M5851 1483 c8 -21 4 -79 -18 -240 -25 -183 -28 -252 -10 -233 3 3 55
89 116 193 62 103 121 193 132 200 27 17 24 23 -22 41 -31 13 -45 14 -53 6 -8
-8 -6 -15 7 -25 18 -13 18 -15 1 -44 -20 -34 -32 -37 -81 -19 -31 11 -34 16
-31 48 2 28 8 36 26 38 12 2 22 10 22 18 0 14 -25 27 -75 40 -23 6 -23 4 -14
-23z"/>
</g>
</svg>
